<?xml version="1.0" encoding="UTF-8"?>
<svg width="346px" height="453px" viewBox="0 0 346 453" version="1.1" xmlns="http://www.w3.org/2000/svg" xmlns:xlink="http://www.w3.org/1999/xlink">
    <!-- Generator: Sketch 53.2 (72643) - https://sketchapp.com -->
    <title>Shape</title>
    <desc>Created with Sketch.</desc>
    <g id="Page-1" stroke="none" stroke-width="1" fill="none" fill-rule="evenodd">
        <g id="Artboard" transform="translate(-264.000000, -233.000000)" fill="#FFFFFF">
            <path d="M465.574423,449.257015 C450.763498,426.386331 433.83047,414.992631 414.775337,415.075912 L344.820092,233.6 L439.5,233.6 C481.100208,233.6 512.699892,243.5999 534.3,263.6 C555.900108,283.6001 566.7,312.399812 566.7,350 C566.7,372.800114 562.600041,391.699925 554.4,406.7 C546.199959,421.700075 533.700084,434.399948 516.9,444.8 C533.700084,448.000016 547.999941,452.899967 559.8,459.5 C571.600059,466.100033 581.199963,474.199952 588.6,483.8 C596.000037,493.400048 601.299984,504.19994 604.5,516.2 C607.700016,528.20006 609.3,540.999932 609.3,554.6 C609.3,575.800106 605.600037,594.599918 598.2,611 C590.799963,627.400082 580.400067,641.199944 567,652.4 C553.599933,663.600056 537.300096,671.999972 518.1,677.6 C498.899904,683.200028 477.30012,686 453.3,686 L264.3,686 L264.3,233.6 L319.255416,233.6 L386.49887,423.705305 C375.058281,432.236278 372.532178,446.416654 378.920562,466.246433 C385.63725,465.368324 392.357609,464.414258 398.933919,463.393733 C424.711591,459.393501 447.368178,454.628633 465.574427,449.257014 L465.574423,449.257015 Z M474.210181,457.0761 C454.493371,463.370735 429.412949,468.783626 400.467385,473.275457 C394.369937,474.221672 388.151614,475.111449 381.9249,475.937418 C389.227442,506.874839 383.512668,536.486625 364.780578,564.772777 C335.396522,609.143792 298.569329,649.353841 296.929655,650.745292 C319.403232,651.661688 344.031634,645.351777 370.814863,631.815559 C370.814863,639.85426 364.129566,646.988568 350.758971,653.218483 C368.269985,654.807299 396.05653,646.096663 434.118604,627.086574 C425.19255,637.671208 415.720751,646.381844 405.703205,653.218483 C419.083938,653.218483 442.632412,642.809404 476.348627,621.991247 C471.031301,632.007988 466.058649,640.274871 461.430673,646.791896 C494.170753,637.28067 516.139148,620.761536 527.335857,597.234494 C551.094903,547.31089 533.386344,500.591425 474.210181,457.0761 L474.210181,457.0761 Z" id="Shape"></path>
        </g>
    </g>
</svg>