<?xml version="1.0" encoding="UTF-8"?>
<svg width="2075px" height="496px" viewBox="0 0 2075 496" version="1.1" xmlns="http://www.w3.org/2000/svg" xmlns:xlink="http://www.w3.org/1999/xlink">
    <!-- Generator: Sketch 53.2 (72643) - https://sketchapp.com -->
    <title>Artboard</title>
    <desc>Created with Sketch.</desc>
    <g id="Artboard" stroke="none" stroke-width="1" fill="none" fill-rule="evenodd">
        <path d="M201.274423,232.466337 C186.463498,209.615875 169.53047,198.232248 150.475337,198.315456 L80.5200924,17 L175.2,17 C216.800208,17 248.399892,26.9910584 270,46.9734748 C291.600108,66.9558912 302.4,95.7301393 302.4,133.297082 C302.4,156.077037 298.300041,174.960137 290.1,189.94695 C281.899959,204.933762 269.400084,217.622406 252.6,228.013263 C269.400084,231.210449 283.699941,236.106068 295.5,242.700265 C307.300059,249.294463 316.899963,257.38722 324.3,266.97878 C331.700037,276.57034 336.999984,287.360683 340.2,299.350133 C343.400016,311.339582 345,324.128137 345,337.71618 C345,358.897542 341.300037,377.680732 333.9,394.066313 C326.499963,410.451894 316.100067,424.239555 302.7,435.429708 C289.299933,446.619861 273.000096,455.01235 253.8,460.607427 C234.599904,466.202504 213.00012,469 189,469 L0,469 L0,17 L54.9554158,17 L122.19887,206.937219 C110.758281,215.460649 108.232178,229.628487 114.620562,249.440733 C121.33725,248.563401 128.057609,247.610178 134.633919,246.590555 C160.411591,242.593861 183.068178,237.833205 201.274427,232.466335 L201.274423,232.466337 Z M209.910181,240.278508 C190.193371,246.567577 165.112949,251.975683 136.167385,256.463543 C130.069937,257.40892 123.851614,258.297911 117.6249,259.12315 C124.927442,290.033216 119.212668,319.618821 100.480578,347.879962 C71.0965218,392.211746 34.2693292,432.386243 32.6296553,433.776463 C55.1032318,434.692049 79.7316343,428.387717 106.514863,414.863467 C106.514863,422.895061 99.8295656,430.023061 86.458971,436.247467 C103.969985,437.834879 131.75653,429.131944 169.818604,410.138663 C160.89255,420.713939 151.420751,429.416873 141.403205,436.247467 C154.783938,436.247467 178.332412,425.847592 212.048627,405.047842 C206.731301,415.055727 201.758649,423.3153 197.130673,429.826563 C229.870753,420.323746 251.839148,403.819218 263.035857,380.312978 C286.794903,330.433515 269.086344,283.755358 209.910181,240.278508 L209.910181,240.278508 Z" id="Shape" fill="#000000"></path>
        <path d="M429.1,159.2 L537.7,159.2 L537.7,209.6 C549.300058,191.199908 563.499916,177.100049 580.3,167.3 C597.100084,157.499951 616.699888,152.6 639.1,152.6 L648.4,152.6 C651.800017,152.6 655.699978,152.999996 660.1,153.8 L660.1,257.6 C645.699928,250.399964 630.100084,246.8 613.3,246.8 C588.099874,246.8 569.200063,254.299925 556.6,269.3 C543.999937,284.300075 537.7,306.199856 537.7,335 L537.7,467 L429.1,467 L429.1,159.2 Z M813.7,311.6 C813.7,322.000052 815.599981,331.499957 819.4,340.1 C823.200019,348.700043 828.199969,356.199968 834.4,362.6 C840.600031,369.000032 847.999957,373.999982 856.6,377.6 C865.200043,381.200018 874.299952,383 883.9,383 C893.500048,383 902.599957,381.200018 911.2,377.6 C919.800043,373.999982 927.199969,369.000032 933.4,362.6 C939.600031,356.199968 944.599981,348.700043 948.4,340.1 C952.200019,331.499957 954.1,322.20005 954.1,312.2 C954.1,302.599952 952.200019,293.500043 948.4,284.9 C944.599981,276.299957 939.600031,268.800032 933.4,262.4 C927.199969,255.999968 919.800043,251.000018 911.2,247.4 C902.599957,243.799982 893.500048,242 883.9,242 C874.299952,242 865.200043,243.799982 856.6,247.4 C847.999957,251.000018 840.600031,255.999968 834.4,262.4 C828.199969,268.800032 823.200019,276.199958 819.4,284.6 C815.599981,293.000042 813.7,301.999952 813.7,311.6 Z M699.1,310.4 C699.1,287.599886 703.699954,266.300099 712.9,246.5 C722.100046,226.699901 734.899918,209.500073 751.3,194.9 C767.700082,180.299927 787.199887,168.800042 809.8,160.4 C832.400113,151.999958 857.099866,147.8 883.9,147.8 C910.300132,147.8 934.799887,151.899959 957.4,160.1 C980.000113,168.300041 999.599917,179.699927 1016.2,194.3 C1032.80008,208.900073 1045.69995,226.299899 1054.9,246.5 C1064.10005,266.700101 1068.7,288.999878 1068.7,313.4 C1068.7,337.800122 1064.00005,360.099899 1054.6,380.3 C1045.19995,400.500101 1032.30008,417.899927 1015.9,432.5 C999.499918,447.100073 979.800115,458.39996 956.8,466.4 C933.799885,474.40004 908.900134,478.4 882.1,478.4 C855.699868,478.4 831.300112,474.40004 808.9,466.4 C786.499888,458.39996 767.200081,447.000074 751,432.2 C734.799919,417.399926 722.100046,399.700103 712.9,379.1 C703.699954,358.499897 699.1,335.600126 699.1,310.4 Z M1233.7,311.6 C1233.7,322.000052 1235.59998,331.499957 1239.4,340.1 C1243.20002,348.700043 1248.19997,356.199968 1254.4,362.6 C1260.60003,369.000032 1267.99996,373.999982 1276.6,377.6 C1285.20004,381.200018 1294.29995,383 1303.9,383 C1313.50005,383 1322.59996,381.200018 1331.2,377.6 C1339.80004,373.999982 1347.19997,369.000032 1353.4,362.6 C1359.60003,356.199968 1364.59998,348.700043 1368.4,340.1 C1372.20002,331.499957 1374.1,322.20005 1374.1,312.2 C1374.1,302.599952 1372.20002,293.500043 1368.4,284.9 C1364.59998,276.299957 1359.60003,268.800032 1353.4,262.4 C1347.19997,255.999968 1339.80004,251.000018 1331.2,247.4 C1322.59996,243.799982 1313.50005,242 1303.9,242 C1294.29995,242 1285.20004,243.799982 1276.6,247.4 C1267.99996,251.000018 1260.60003,255.999968 1254.4,262.4 C1248.19997,268.800032 1243.20002,276.199958 1239.4,284.6 C1235.59998,293.000042 1233.7,301.999952 1233.7,311.6 Z M1119.1,310.4 C1119.1,287.599886 1123.69995,266.300099 1132.9,246.5 C1142.10005,226.699901 1154.89992,209.500073 1171.3,194.9 C1187.70008,180.299927 1207.19989,168.800042 1229.8,160.4 C1252.40011,151.999958 1277.09987,147.8 1303.9,147.8 C1330.30013,147.8 1354.79989,151.899959 1377.4,160.1 C1400.00011,168.300041 1419.59992,179.699927 1436.2,194.3 C1452.80008,208.900073 1465.69995,226.299899 1474.9,246.5 C1484.10005,266.700101 1488.7,288.999878 1488.7,313.4 C1488.7,337.800122 1484.00005,360.099899 1474.6,380.3 C1465.19995,400.500101 1452.30008,417.899927 1435.9,432.5 C1419.49992,447.100073 1399.80012,458.39996 1376.8,466.4 C1353.79989,474.40004 1328.90013,478.4 1302.1,478.4 C1275.69987,478.4 1251.30011,474.40004 1228.9,466.4 C1206.49989,458.39996 1187.20008,447.000074 1171,432.2 C1154.79992,417.399926 1142.10005,399.700103 1132.9,379.1 C1123.69995,358.499897 1119.1,335.600126 1119.1,310.4 Z M1551.1,159.2 L1659.7,159.2 L1659.7,197 C1689.30015,168.599858 1722.49982,154.4 1759.3,154.4 C1804.90023,154.4 1839.69988,173.599808 1863.7,212 C1888.10012,173.199806 1922.89977,153.8 1968.1,153.8 C1982.50007,153.8 1996.09994,155.899979 2008.9,160.1 C2021.70006,164.300021 2032.69995,170.899955 2041.9,179.9 C2051.10005,188.900045 2058.39997,200.599928 2063.8,215 C2069.20003,229.400072 2071.9,246.799898 2071.9,267.2 L2071.9,467 L1963.3,467 L1963.3,315.2 C1963.3,299.599922 1962.20001,286.80005 1960,276.8 C1957.79999,266.79995 1954.60002,259.000028 1950.4,253.4 C1946.19998,247.799972 1941.30003,244.00001 1935.7,242 C1930.09997,239.99999 1924.10003,239 1917.7,239 C1882.89983,239 1865.5,264.399746 1865.5,315.2 L1865.5,467 L1756.9,467 L1756.9,315.2 C1756.9,299.599922 1755.90001,286.700051 1753.9,276.5 C1751.89999,266.299949 1749.00002,258.20003 1745.2,252.2 C1741.39998,246.19997 1736.50003,242.100011 1730.5,239.9 C1724.49997,237.699989 1717.50004,236.6 1709.5,236.6 C1702.69997,236.6 1696.30003,237.59999 1690.3,239.6 C1684.29997,241.60001 1679.00002,245.499971 1674.4,251.3 C1669.79998,257.100029 1666.20001,265.099949 1663.6,275.3 C1660.99999,285.500051 1659.7,298.799918 1659.7,315.2 L1659.7,467 L1551.1,467 L1551.1,159.2 Z" id="room" fill="#000000" fill-rule="nonzero"></path>
    </g>
</svg>
